<svg xmlns="http://www.w3.org/2000/svg" width="180" height="111.6" viewBox="0 0 180 111.6"><g transform="translate(-1 16.989)"><path d="M9.189,9.881a79.086,79.086,0,0,0,11.043-.944c-.1,1.228-.284,5-.284,12.176v3.209c2.643-2.171,4.814-3.3,7.457-3.3a7.773,7.773,0,0,1,6.8,3.493,14.808,14.808,0,0,1,1.888,7.645c0,8.776-4.153,13.779-12.553,13.779a15.833,15.833,0,0,1-6.606-1.605c-1.133.378-2.643,1.133-4.153,1.605l-.473-.284c.1-2.549.1-7.362.1-13.874V19.7c0-3.02-.1-5.1-.189-6.889-.1-1.228-.378-1.416-3.209-1.416Zm14.346,34.26c3.209,0,4.719-3.87,4.719-11.043a15.588,15.588,0,0,0-1.321-6.984,3.4,3.4,0,0,0-3.02-1.888A4.346,4.346,0,0,0,20.419,26.3c-.471.661-.66,1.228-.66,8.683,0,6.135.284,6.324.661,7.079A3.4,3.4,0,0,0,23.534,44.141ZM52.6,45.369c-1.983,0-3.964-.19-7.079-.19-3.3,0-4.908.19-6.511.19V43.763c2.643-.1,3.02-.566,3.115-1.605.094-1.133.189-2.925.189-5.851v-6.04c0-2.454,0-4.435-.1-5.285s-.473-1.133-2.926-1.037V22.339A96.023,96.023,0,0,0,49.772,21.3c-.1,1.228-.189,3.493-.189,8.683V36.5c0,3.02.1,4.341.189,5.663s.473,1.51,2.831,1.792ZM45.524,10.353c2.455,0,3.87,1.416,3.87,3.964,0,2.171-1.605,3.682-4.059,3.682a3.518,3.518,0,0,1-3.68-3.682,3.741,3.741,0,0,1,3.87-3.964Zm9.533-.473a69.593,69.593,0,0,0,10.288-.944q-.191,5.849-.19,11.7v11.8c1.794-.473,5.663-5.192,7.173-7.928.284-.566.284-.85-.471-.85l-2.076-.189v-1.6c3.493.1,7.079-.1,10.666-.284v1.605c-2.643.284-3.682.473-4.72,1.321a44.16,44.16,0,0,0-4.53,4.719c1.133,2.36,5.853,11.043,7.645,13.4a2.631,2.631,0,0,0,2.36,1.133l1.32.1-.094,1.6a69.961,69.961,0,0,0-10.477.566c-1.133-2.643-4.53-9.06-5.568-11.043-.566-1.037-.85-1.415-1.228-1.321,0,3.87-.094,5.758.1,8.494.1,1.228.378,1.605,2.926,1.7v1.605c-1.794,0-3.682-.189-6.8-.189-3.682,0-5.285.189-6.7.189V43.857c2.454-.094,2.831-.565,2.926-1.51.094-1.133.187-3.586.187-8.494V21.679c0-3.87,0-6.8-.094-9.249q0-.849-1.133-.85H54.962Zm-22.744,58.8c-1.605,5.1-4.719,7.55-9.911,7.55-4.437,0-7.268-1.228-9.249-3.87a13.644,13.644,0,0,1-2.265-8.21c0-7.268,4.437-12.835,12.553-12.835,4.908,0,8.494,2.265,8.494,5.947a3.549,3.549,0,0,1-3.775,3.585,4.283,4.283,0,0,1-1.888-.471,1.474,1.474,0,0,1-.661-1.7,14.217,14.217,0,0,0,.284-1.983c0-2.359-.85-3.491-2.643-3.491-2.926,0-4.437,4.248-4.437,10.1a15.64,15.64,0,0,0,1.133,6.6c.944,2.171,2.454,3.4,4.719,3.4,2.831,0,4.625-1.6,5.947-5.285Zm5.379-6.889a52.73,52.73,0,0,0-.284-6.608.994.994,0,0,0-1.133-.942h-1.7V52.635A39.8,39.8,0,0,0,44.014,51.5l.284.189c.189,1.133.378,3.87.473,5.569h.187c1.229-3.3,2.926-5.947,6.419-5.947a3.557,3.557,0,0,1,3.493,3.775,3.722,3.722,0,0,1-3.3,4.059,1.828,1.828,0,0,1-1.888-.945c-.471-1.037-.755-1.6-1.7-1.6-1.039,0-1.605.944-2.265,2.454a10.02,10.02,0,0,0-.473,3.4c0,5.38,0,8.4.1,9.722s.565,1.7,4.34,1.792l-.094,1.605c-2.643-.1-5-.19-7.739-.19-2.831,0-4.908.1-7.268.19l.282-1.605c2.265-.1,2.831-.378,2.831-1.321.1-1.321.189-3.87.189-6.8V61.789h-.189Zm32-4.341c0-2.833-.945-4.343-2.833-4.343-2.17,0-3.207,1.228-3.207,3.493a10.536,10.536,0,0,0,.187,1.794,1.344,1.344,0,0,1-.565,1.415,5.158,5.158,0,0,1-2.643.85c-1.794,0-3.3-.852-3.3-2.926,0-3.02,4.437-6.418,10.666-6.418,5.095,0,7.36,2.076,8.21,3.4a4.743,4.743,0,0,1,.755,2.549V71.133c0,1.605.473,1.983,1.039,1.983.755,0,1.6-1.228,1.981-3.3l1.605.755c-.85,4.059-3.3,5.758-6.7,5.758-2.926,0-4.53-1.228-5-3.682-2.265,2.265-4.624,3.682-7.078,3.682-3.964,0-6.607-2.643-6.607-6.986a4.878,4.878,0,0,1,3.115-5c3.207-1.416,8.021-2.831,10.38-4.53v-2.36ZM63.74,67.924c0,2.076.85,4.341,2.926,4.341a2.812,2.812,0,0,0,2.643-1.888,7.012,7.012,0,0,0,.282-2.265V61.7c-1.039.661-2.643,1.416-3.87,2.171C64.588,64.622,63.74,65.564,63.74,67.924Zm18.687-15.76,3.02.094v-1.51c.1-3.964,1.039-6.89,3.115-8.967a9.327,9.327,0,0,1,6.889-2.831c3.87,0,5.947,1.888,5.947,4.341,0,1.794-1.51,3.02-3.588,3.02a1.783,1.783,0,0,1-1.888-1.888c0-1.981-.282-3.585-1.7-3.585-.945,0-1.51.849-1.7,2.454-.187,1.51.1,4.341.284,8.776h4.625l-.284,1.888-4.341.284c-.1,1.792-.1,4.908-.1,8.588,0,3.493,0,6.606.1,9.06.1,1.228.284,1.7,1.321,1.794a25.164,25.164,0,0,0,2.549.187l-.192,1.605c-1.792,0-4.624-.189-7.078-.189-2.549,0-5.569.189-7.268.189l.1-1.605c2.454-.094,2.831-.378,2.926-1.415.187-1.605.187-4.059.187-7.362V54.145l-3.207-.189.282-1.794Z" transform="translate(4.591 4.558)" fill="#fec63e"/><path d="M84.578,40.4l-.19,1.792-5.756.378c0,1.983-.1,4.908-.1,8.872,0,4.153,0,6.984.19,8.683.094,1.228.565,1.794,1.51,1.794,1.981,0,3.207-2.171,3.68-4.153h.755l.661,2.17c-1.133,2.738-3.965,4.625-8.118,4.625a6.908,6.908,0,0,1-5.19-1.888,5.2,5.2,0,0,1-.944-3.4c0-3.87.189-12.553.189-16.706l-3.02-.284.189-1.792H71.27c.1-1.794.1-3.87.1-5.758A26.084,26.084,0,0,0,78.443,32l.566.1q-.247,4.2-.284,8.4h5.853v-.1Z" transform="translate(34.811 16.322)" fill="#fec63e"/><path d="M171,9v93.6H9V9Zm9-9H0V111.6H180V0Z" transform="translate(1 -16.989)" fill="#fec63e"/></g></svg>